<svg xmlns="http://www.w3.org/2000/svg" xml:space="preserve" width="16.119" height="31.063"><path fill="#45a648" fill-opacity=".898" d="M3.732 2.78c-1.235 0-2.228 1.077-2.228 2.415V7.59h13.111V5.195c0-1.338-.993-2.416-2.228-2.416H3.732zM1.504 8.474v7.115h13.111V8.475H1.504zm0 8v7.115h13.111v-7.115H1.504zm0 8v2.394c0 1.339.993 2.416 2.228 2.416h8.655c1.235 0 2.228-1.077 2.228-2.416v-2.394H1.504z" paint-order="stroke markers fill"/><path fill="#91908d" d="M4.76 0c-.555 0-1 .446-1 1H2.434A2.428 2.428 0 0 0 0 3.434v25.195a2.428 2.428 0 0 0 2.434 2.434h11.252a2.428 2.428 0 0 0 2.433-2.434V3.434A2.428 2.428 0 0 0 13.686 1h-1.327a1 1 0 0 0-1.002-1H4.76zM3.28 2.014h9.56c1.365 0 2.463 1.14 2.463 2.556v22.924c0 1.416-1.098 2.555-2.463 2.555H3.28c-1.366 0-2.466-1.14-2.466-2.555V4.57c0-1.415 1.1-2.556 2.465-2.556z" paint-order="markers fill stroke"/></svg>