<svg xmlns="http://www.w3.org/2000/svg" xml:space="preserve" viewBox="0 0 16.119 31.063"><path fill="#fec83b" fill-opacity=".898" d="M3.732 2.78c-1.235 0-2.228 1.077-2.228 2.415V7.59h13.11V5.195c0-1.338-.993-2.416-2.228-2.416H3.732zM1.504 8.474v7.115h13.11V8.475H1.505zm0 8v7.115h13.11v-7.115H1.505zm0 8v2.394c0 1.339.993 2.416 2.228 2.416h8.655c1.235 0 2.228-1.077 2.228-2.416v-2.394H1.505z" paint-order="stroke markers fill"/><path fill="#91908d" d="M4.76 0c-.554 0-1 .446-1 1H2.434A2.428 2.428 0 0 0 0 3.434v25.195a2.428 2.428 0 0 0 2.434 2.433h11.252a2.428 2.428 0 0 0 2.433-2.433V3.434A2.428 2.428 0 0 0 13.686 1h-1.327a1 1 0 0 0-1.002-1H4.76zM3.28 2.014h9.56c1.365 0 2.463 1.14 2.463 2.556v22.924c0 1.416-1.098 2.555-2.463 2.555H3.28c-1.366 0-2.466-1.139-2.466-2.555V4.57c0-1.416 1.1-2.556 2.465-2.556z" paint-order="markers fill stroke"/><path d="M6.167 3.688h3.785l-.717 19.207h-2.35zm0 19.902h3.785v3.785H6.167z" paint-order="markers fill stroke"/></svg>