<svg xmlns="http://www.w3.org/2000/svg" xml:space="preserve" viewBox="0 0 32 33"><g paint-order="markers fill stroke"><rect width="32" height="2.979" y="24.86" fill="#ea5859" rx="0" ry="0"/><path fill="#ed3139" d="M11.096 27.84h9.808C20.904 32.96 16 33 16 33s-4.904-.04-4.904-5.16z"/><path fill="#ea5859" d="M13.922 2.278S13.922 0 16 0c2.092 0 2.092 2.278 2.092 2.278z"/><path fill="#ed3139" d="M16 2.13v22.73H0c.023 0 2.308-.34 2.592-4.009C3.514 8.925 4.702 2.332 16 2.131zm0 0v22.73h16c-.023 0-2.308-.34-2.592-4.009C28.486 8.925 27.298 2.332 16 2.131z" class="UnoptimicedTransforms"/></g></svg>