<svg xmlns="http://www.w3.org/2000/svg" viewBox="0 0 60 128"><path fill="#b61017" d="M17.1 28.4c4.8-4.9 6-5.4 10.2-6.4 1.5-.4 1.3-17.3 1.3-17.3h11.6v1.6s16 6.7 15.5 8.2c-.4 1.1-15.7-4.4-15.7-4.4-.2 4.4-.3 9.9.2 10 4.1 1.5 8 4.4 11.8 8.3v94.9a44.5 44.5 0 0 1-34.9 0z" paint-order="markers fill stroke"/><path fill="#24292b" d="m17.6 99.7-4.7-.3c-.2 0-.1-2.1 0-2.2 0 0 .4-.1.2-1.8-.8-8.6-10.2-41-11.4-45.7A40 40 0 0 1 .1 35.4 28 28 0 0 1 3.6 24a33 33 0 0 1 25-13.6v3.4c-14 .5-20 7.1-23.4 14.7-4.1 11-2.3 14.7 3.3 32.8 2.8 8.9 8 35.8 8.2 35.8h.4c.6-.1.6 2.6.5 2.6z"/><rect width="27.1" height="48.9" x="21.3" y="43.1" fill="#fff" stroke="#000" stroke-linejoin="round" stroke-width=".3" paint-order="markers fill stroke" rx=".9" ry=".9"/><path fill="#fff" d="M40 11.1v6.3c0 .5-8.9 0-8.9 0V11z" paint-order="markers fill stroke"/><rect width="34.9" height="1.8" x="17.1" y="100.8" fill="#961b1f" paint-order="markers fill stroke" rx="0" ry="0"/></svg>