<svg xmlns="http://www.w3.org/2000/svg" viewBox="0 0 36 32"><g paint-order="markers fill stroke"><path fill="#de961a" d="M18 0c.839-.225 18 30.165 18 30.165.521.873-.818 1.835-1.835 1.835H1.835C.818 32-.52 31.038 0 30.165 0 30.165 17.193.216 18 0Z"/><path fill="#fde603" stroke="#000" stroke-linejoin="round" stroke-width=".5" d="M18 2.47c.71-.19 15.222 25.508 15.222 25.508.44.739-.692 1.552-1.552 1.552H4.33c-.86 0-1.992-.813-1.552-1.552 0 0 14.54-25.326 15.222-25.509z"/><rect width="3.135" height="3.135" x="16.432" y="24.988" rx="0" ry="0"/><path d="M16.432 12.276h3.136l-.2 11.718h-2.735z"/></g></svg>