<svg xmlns="http://www.w3.org/2000/svg" viewBox="0 0 36 32"><g paint-order="markers fill stroke"><path fill="#de961a" d="m18 .001 17.885 29.972-1.824 1.823H1.938L.115 29.973Z"/><path fill="#fde603" stroke="#000" stroke-linejoin="round" stroke-width=".497" d="M18 2.455C18.705 2.267 33.124 27.8 33.124 27.8c.437.734-.687 1.542-1.542 1.542H4.417c-.854 0-1.979-.808-1.542-1.542 0 0 14.447-25.164 15.125-25.346z"/><path fill="#9b7615" d="M16.905 8.11h2.19v10.03h-2.19z" style="-inkscape-stroke:none" transform="translate(.115) scale(.99359)"/><g fill="#1c1304" transform="translate(.115) scale(.99359)"><rect width="16.707" height="1.649" x="9.646" y="19.681" rx=".825" ry=".825" style="-inkscape-stroke:none"/><rect width="12.707" height="1.649" x="11.646" y="22.681" rx=".825" ry=".825" style="-inkscape-stroke:none;font-variation-settings:normal"/><rect width="6.96" height="1.649" x="14.42" y="25.681" rx=".825" ry=".825" style="-inkscape-stroke:none"/></g></g></svg>