<svg xmlns="http://www.w3.org/2000/svg" xml:space="preserve" viewBox="0 0 34 34"><g fill="none" stroke="#5d84c3" stroke-width="2" class="UnoptimicedTransforms" paint-order="markers fill stroke" style="font-variation-settings:normal"><path d="M17 1A16 16 0 0 0 1 17a16 16 0 0 0 16 16" style="font-variation-settings:normal"/><path d="M17 1c-3.866 0-7.5 7.163-7.5 16s3.634 16 7.5 16M1 17h16" style="font-variation-settings:normal"/><path d="M17 9.91c-5.523 0-12.163-1.648-12.163-3.305M17 24.09c-5.523 0-12.163 1.648-12.163 3.305" style="font-variation-settings:normal"/></g><g fill="none" stroke="#3d5dab" stroke-width="2" class="UnoptimicedTransforms" paint-order="markers fill stroke" style="font-variation-settings:normal"><path d="M17 1A16 16 0 0 0 1 17a16 16 0 0 0 16 16" style="font-variation-settings:normal" transform="matrix(-1 0 0 1 34 0)"/><path d="M17 1c-3.866 0-7.5 7.163-7.5 16s3.634 16 7.5 16M1 17h16" style="font-variation-settings:normal" transform="matrix(-1 0 0 1 34 0)"/><path d="M17 9.91c-5.523 0-12.163-1.648-12.163-3.305M17 24.09c-5.523 0-12.163 1.648-12.163 3.305" style="font-variation-settings:normal" transform="matrix(-1 0 0 1 34 0)"/></g></svg>