<svg xmlns="http://www.w3.org/2000/svg" viewBox="0 0 32 32"><path fill="none" stroke="#797979" stroke-linecap="round" stroke-width="1.9" d="M4.44 21.203c-3.9 3.211-2.064 9.787 2.37 9.71 4.436-.076 6.636-2.54 9.7-4.31 4.061-2.344 9.515-4.857 11.787 3.622"/><path fill="#3ba548" d="m17.794 3.169 8.612 13.016-5.19 3.434-8.612-13.016z" paint-order="markers fill stroke"/><path fill="#8bb26e" d="m13.34 7.715 7.14 10.792c-7.25 4.796-9.756 1.007-9.756 1.007L8.598 16.3s-2.508-3.79 4.742-8.586z" paint-order="markers fill stroke"/><path fill="#8bb26e" d="m8.598 16.301 2.126 3.213-5.932 3.924-2.125-3.212z" paint-order="markers fill stroke"/><path fill="#afb0b0" fill-opacity=".8" d="M31.237 9.523 32 10.677l-6.425 4.251-.764-1.153zM24.935 0l.763 1.153-6.425 4.252-.763-1.153z" paint-order="markers fill stroke"/></svg>